<svg xmlns="http://www.w3.org/2000/svg" xmlns:xlink="http://www.w3.org/1999/xlink" width="50" zoomAndPan="magnify" viewBox="0 0 37.5 37.499999" height="50" preserveAspectRatio="xMidYMid meet" version="1.0"><defs><g/><clipPath id="4cf77b1f64"><path d="M 0.746094 3.054688 L 36.269531 3.054688 L 36.269531 34 L 0.746094 34 Z M 0.746094 3.054688 " clip-rule="nonzero"/></clipPath></defs><g clip-path="url(#4cf77b1f64)"><path fill="#00cf66" d="M 33.601562 3.285156 L 9.332031 6.339844 C 10.019531 7.054688 10.503906 7.964844 10.632812 9.003906 L 11.03125 11.90625 L 30.097656 11.039062 C 30.402344 11.019531 30.695312 11.15625 30.894531 11.386719 C 31.09375 11.621094 31.175781 11.929688 31.117188 12.226562 L 29.785156 19.078125 C 29.539062 20.355469 28.144531 21.273438 26.476562 21.273438 L 12.300781 21.273438 L 12.449219 22.316406 C 12.523438 22.910156 13.058594 23.371094 13.6875 23.371094 L 27.488281 23.371094 C 28.03125 23.371094 28.484375 23.816406 28.484375 24.367188 C 28.484375 24.910156 28.03125 25.359375 27.488281 25.359375 L 13.6875 25.359375 C 12.074219 25.359375 10.6875 24.167969 10.472656 22.582031 L 8.660156 9.265625 C 8.484375 7.871094 7.257812 6.824219 5.820312 6.824219 L 5.519531 6.824219 L 3.011719 7.136719 C 1.6875 7.304688 0.746094 8.507812 0.90625 9.832031 L 3.5625 30.046875 C 3.761719 31.554688 5.015625 32.703125 6.539062 32.769531 L 30.328125 33.789062 C 32.027344 33.863281 33.488281 32.59375 33.65625 30.910156 L 36.136719 5.757812 C 36.28125 4.3125 35.050781 3.101562 33.601562 3.285156 Z M 15.433594 30.097656 C 14.535156 30.097656 13.808594 29.371094 13.808594 28.46875 C 13.808594 27.574219 14.535156 26.839844 15.433594 26.839844 C 16.335938 26.839844 17.0625 27.574219 17.0625 28.46875 C 17.0625 29.371094 16.335938 30.097656 15.433594 30.097656 Z M 24.257812 30.097656 C 23.355469 30.097656 22.628906 29.371094 22.628906 28.46875 C 22.628906 27.574219 23.355469 26.839844 24.257812 26.839844 C 25.152344 26.839844 25.878906 27.574219 25.878906 28.46875 C 25.878906 29.371094 25.152344 30.097656 24.257812 30.097656 Z M 24.257812 30.097656 " fill-opacity="1" fill-rule="nonzero"/></g><path fill="#00cf66" d="M 26.476562 19.292969 C 27.289062 19.292969 27.792969 18.910156 27.832031 18.703125 L 28.925781 13.09375 L 11.300781 13.886719 L 12.035156 19.292969 Z M 26.476562 19.292969 " fill-opacity="1" fill-rule="nonzero"/><g fill="#ffffff" fill-opacity="1"><g transform="translate(14.706676, 36.546051)"><g><path d="M 1.265625 0 L 1.09375 0 L 0.953125 -0.390625 L 0.359375 -0.390625 L 0.234375 0 L 0.0625 0 L 0.546875 -1.40625 L 0.78125 -1.40625 Z M 0.640625 -1.234375 L 0.40625 -0.53125 L 0.90625 -0.53125 L 0.671875 -1.234375 Z M 0.640625 -1.234375 "/></g></g><g transform="translate(16.030819, 36.546051)"><g><path d="M 0.546875 0.453125 C 0.378906 0.453125 0.253906 0.421875 0.171875 0.359375 C 0.0976562 0.304688 0.0625 0.234375 0.0625 0.140625 C 0.0625 0.0859375 0.078125 0.0390625 0.109375 0 C 0.148438 -0.03125 0.207031 -0.0546875 0.28125 -0.078125 L 0.28125 -0.09375 C 0.238281 -0.113281 0.207031 -0.132812 0.1875 -0.15625 C 0.175781 -0.1875 0.171875 -0.21875 0.171875 -0.25 C 0.171875 -0.289062 0.179688 -0.320312 0.203125 -0.34375 C 0.234375 -0.375 0.273438 -0.394531 0.328125 -0.40625 L 0.328125 -0.421875 C 0.210938 -0.484375 0.15625 -0.582031 0.15625 -0.71875 C 0.15625 -0.789062 0.171875 -0.851562 0.203125 -0.90625 C 0.234375 -0.957031 0.273438 -1 0.328125 -1.03125 C 0.390625 -1.0625 0.460938 -1.078125 0.546875 -1.078125 C 0.628906 -1.078125 0.703125 -1.054688 0.765625 -1.015625 C 0.785156 -1.046875 0.800781 -1.070312 0.8125 -1.09375 C 0.820312 -1.125 0.832031 -1.160156 0.84375 -1.203125 L 0.859375 -1.21875 L 0.984375 -1.1875 C 0.984375 -1.125 0.96875 -1.070312 0.9375 -1.03125 C 0.914062 -1 0.878906 -0.972656 0.828125 -0.953125 L 0.828125 -0.9375 C 0.859375 -0.90625 0.878906 -0.867188 0.890625 -0.828125 C 0.910156 -0.796875 0.921875 -0.753906 0.921875 -0.703125 C 0.921875 -0.640625 0.90625 -0.582031 0.875 -0.53125 C 0.84375 -0.476562 0.796875 -0.4375 0.734375 -0.40625 C 0.679688 -0.375 0.617188 -0.359375 0.546875 -0.359375 C 0.535156 -0.359375 0.519531 -0.359375 0.5 -0.359375 C 0.46875 -0.359375 0.445312 -0.359375 0.4375 -0.359375 C 0.40625 -0.359375 0.378906 -0.347656 0.359375 -0.328125 C 0.335938 -0.316406 0.328125 -0.296875 0.328125 -0.265625 C 0.328125 -0.234375 0.335938 -0.207031 0.359375 -0.1875 C 0.378906 -0.175781 0.414062 -0.171875 0.46875 -0.171875 L 0.71875 -0.15625 C 0.820312 -0.15625 0.898438 -0.128906 0.953125 -0.078125 C 1.003906 -0.0351562 1.03125 0.0234375 1.03125 0.109375 C 1.03125 0.171875 1.015625 0.226562 0.984375 0.28125 C 0.953125 0.332031 0.898438 0.375 0.828125 0.40625 C 0.753906 0.4375 0.660156 0.453125 0.546875 0.453125 Z M 0.546875 -0.5 C 0.617188 -0.5 0.675781 -0.515625 0.71875 -0.546875 C 0.757812 -0.585938 0.78125 -0.644531 0.78125 -0.71875 C 0.78125 -0.789062 0.757812 -0.847656 0.71875 -0.890625 C 0.675781 -0.929688 0.617188 -0.953125 0.546875 -0.953125 C 0.472656 -0.953125 0.414062 -0.929688 0.375 -0.890625 C 0.332031 -0.847656 0.3125 -0.789062 0.3125 -0.71875 C 0.3125 -0.644531 0.332031 -0.585938 0.375 -0.546875 C 0.414062 -0.515625 0.472656 -0.5 0.546875 -0.5 Z M 0.546875 0.3125 C 0.617188 0.3125 0.679688 0.300781 0.734375 0.28125 C 0.785156 0.269531 0.820312 0.25 0.84375 0.21875 C 0.863281 0.1875 0.875 0.15625 0.875 0.125 C 0.875 0.09375 0.867188 0.0664062 0.859375 0.046875 C 0.847656 0.0234375 0.828125 0.0078125 0.796875 0 C 0.773438 -0.0078125 0.738281 -0.015625 0.6875 -0.015625 L 0.453125 -0.03125 L 0.421875 -0.03125 C 0.285156 -0.0195312 0.21875 0.03125 0.21875 0.125 C 0.21875 0.25 0.328125 0.3125 0.546875 0.3125 Z M 0.546875 0.3125 "/></g></g><g transform="translate(17.119816, 36.546051)"><g><path d="M 0.1875 0 L 0.1875 -1.0625 L 0.328125 -1.0625 L 0.328125 -0.890625 L 0.359375 -0.890625 C 0.398438 -1.003906 0.488281 -1.0625 0.625 -1.0625 C 0.695312 -1.0625 0.753906 -1.050781 0.796875 -1.03125 L 0.75 -0.890625 L 0.734375 -0.890625 C 0.691406 -0.910156 0.648438 -0.921875 0.609375 -0.921875 C 0.523438 -0.921875 0.457031 -0.890625 0.40625 -0.828125 C 0.363281 -0.765625 0.34375 -0.660156 0.34375 -0.515625 L 0.34375 0 Z M 0.1875 0 "/></g></g><g transform="translate(17.940901, 36.546051)"><g><path d="M 0.265625 -1.265625 C 0.234375 -1.265625 0.207031 -1.273438 0.1875 -1.296875 C 0.164062 -1.316406 0.15625 -1.34375 0.15625 -1.375 C 0.15625 -1.40625 0.164062 -1.429688 0.1875 -1.453125 C 0.207031 -1.472656 0.234375 -1.484375 0.265625 -1.484375 C 0.296875 -1.484375 0.320312 -1.472656 0.34375 -1.453125 C 0.363281 -1.429688 0.375 -1.40625 0.375 -1.375 C 0.375 -1.34375 0.363281 -1.316406 0.34375 -1.296875 C 0.320312 -1.273438 0.296875 -1.265625 0.265625 -1.265625 Z M 0.1875 0 L 0.1875 -1.0625 L 0.34375 -1.0625 L 0.34375 0 Z M 0.1875 0 "/></g></g><g transform="translate(18.468052, 36.546051)"><g><path d="M 0.609375 0.015625 C 0.515625 0.015625 0.429688 -0.00390625 0.359375 -0.046875 C 0.285156 -0.0859375 0.222656 -0.148438 0.171875 -0.234375 C 0.128906 -0.316406 0.109375 -0.414062 0.109375 -0.53125 C 0.109375 -0.644531 0.128906 -0.742188 0.171875 -0.828125 C 0.222656 -0.910156 0.285156 -0.972656 0.359375 -1.015625 C 0.429688 -1.054688 0.515625 -1.078125 0.609375 -1.078125 C 0.722656 -1.078125 0.8125 -1.054688 0.875 -1.015625 C 0.9375 -0.972656 0.984375 -0.914062 1.015625 -0.84375 L 0.90625 -0.765625 L 0.890625 -0.765625 C 0.859375 -0.828125 0.820312 -0.867188 0.78125 -0.890625 C 0.738281 -0.921875 0.679688 -0.9375 0.609375 -0.9375 C 0.546875 -0.9375 0.488281 -0.921875 0.4375 -0.890625 C 0.382812 -0.859375 0.34375 -0.8125 0.3125 -0.75 C 0.289062 -0.6875 0.28125 -0.613281 0.28125 -0.53125 C 0.28125 -0.4375 0.289062 -0.359375 0.3125 -0.296875 C 0.34375 -0.242188 0.382812 -0.203125 0.4375 -0.171875 C 0.488281 -0.140625 0.546875 -0.125 0.609375 -0.125 C 0.679688 -0.125 0.738281 -0.140625 0.78125 -0.171875 C 0.832031 -0.203125 0.875 -0.253906 0.90625 -0.328125 L 0.921875 -0.328125 L 1.03125 -0.265625 C 1 -0.179688 0.945312 -0.113281 0.875 -0.0625 C 0.8125 -0.0078125 0.722656 0.015625 0.609375 0.015625 Z M 0.609375 0.015625 "/></g></g><g transform="translate(19.563795, 36.546051)"><g><path d="M 0.4375 0.015625 C 0.332031 0.015625 0.25 -0.0078125 0.1875 -0.0625 C 0.132812 -0.113281 0.109375 -0.191406 0.109375 -0.296875 C 0.109375 -0.359375 0.117188 -0.410156 0.140625 -0.453125 C 0.171875 -0.492188 0.210938 -0.523438 0.265625 -0.546875 C 0.316406 -0.578125 0.390625 -0.601562 0.484375 -0.625 C 0.554688 -0.632812 0.613281 -0.644531 0.65625 -0.65625 C 0.695312 -0.675781 0.722656 -0.695312 0.734375 -0.71875 C 0.742188 -0.738281 0.75 -0.765625 0.75 -0.796875 C 0.75 -0.835938 0.734375 -0.867188 0.703125 -0.890625 C 0.671875 -0.921875 0.617188 -0.9375 0.546875 -0.9375 C 0.472656 -0.9375 0.410156 -0.921875 0.359375 -0.890625 C 0.316406 -0.867188 0.273438 -0.832031 0.234375 -0.78125 L 0.21875 -0.78125 L 0.140625 -0.890625 C 0.179688 -0.953125 0.234375 -1 0.296875 -1.03125 C 0.367188 -1.0625 0.453125 -1.078125 0.546875 -1.078125 C 0.671875 -1.078125 0.757812 -1.050781 0.8125 -1 C 0.875 -0.945312 0.90625 -0.867188 0.90625 -0.765625 L 0.90625 -0.203125 C 0.90625 -0.148438 0.929688 -0.125 0.984375 -0.125 C 1.003906 -0.125 1.019531 -0.125 1.03125 -0.125 L 1.046875 -0.125 L 1.0625 -0.015625 C 1.050781 -0.00390625 1.035156 0 1.015625 0 C 0.992188 0 0.976562 0 0.96875 0 C 0.90625 0 0.859375 -0.0078125 0.828125 -0.03125 C 0.796875 -0.0507812 0.773438 -0.0859375 0.765625 -0.140625 L 0.75 -0.140625 C 0.71875 -0.0859375 0.675781 -0.046875 0.625 -0.015625 C 0.570312 0.00390625 0.507812 0.015625 0.4375 0.015625 Z M 0.46875 -0.109375 C 0.53125 -0.109375 0.582031 -0.117188 0.625 -0.140625 C 0.664062 -0.171875 0.695312 -0.207031 0.71875 -0.25 C 0.75 -0.300781 0.765625 -0.363281 0.765625 -0.4375 L 0.765625 -0.5625 L 0.734375 -0.5625 C 0.710938 -0.550781 0.6875 -0.539062 0.65625 -0.53125 C 0.625 -0.519531 0.578125 -0.507812 0.515625 -0.5 C 0.453125 -0.488281 0.398438 -0.472656 0.359375 -0.453125 C 0.328125 -0.441406 0.300781 -0.421875 0.28125 -0.390625 C 0.269531 -0.367188 0.265625 -0.335938 0.265625 -0.296875 C 0.265625 -0.234375 0.28125 -0.1875 0.3125 -0.15625 C 0.351562 -0.125 0.40625 -0.109375 0.46875 -0.109375 Z M 0.46875 -0.109375 "/></g></g><g transform="translate(20.663393, 36.546051)"><g><path d="M 0.1875 0 L 0.1875 -1.0625 L 0.328125 -1.0625 L 0.328125 -0.890625 L 0.359375 -0.890625 C 0.398438 -1.003906 0.488281 -1.0625 0.625 -1.0625 C 0.695312 -1.0625 0.753906 -1.050781 0.796875 -1.03125 L 0.75 -0.890625 L 0.734375 -0.890625 C 0.691406 -0.910156 0.648438 -0.921875 0.609375 -0.921875 C 0.523438 -0.921875 0.457031 -0.890625 0.40625 -0.828125 C 0.363281 -0.765625 0.34375 -0.660156 0.34375 -0.515625 L 0.34375 0 Z M 0.1875 0 "/></g></g><g transform="translate(21.484477, 36.546051)"><g><path d="M 0.71875 -0.171875 L 0.765625 -0.0625 C 0.742188 -0.03125 0.710938 -0.0078125 0.671875 0 C 0.628906 0.0078125 0.582031 0.015625 0.53125 0.015625 C 0.332031 0.015625 0.234375 -0.0820312 0.234375 -0.28125 L 0.234375 -0.9375 L 0.046875 -0.9375 L 0.046875 -1.0625 L 0.234375 -1.0625 L 0.234375 -1.28125 L 0.390625 -1.3125 L 0.390625 -1.0625 L 0.734375 -1.0625 L 0.734375 -0.9375 L 0.390625 -0.9375 L 0.390625 -0.296875 C 0.390625 -0.179688 0.441406 -0.125 0.546875 -0.125 C 0.609375 -0.125 0.660156 -0.140625 0.703125 -0.171875 Z M 0.71875 -0.171875 "/></g></g></g></svg>